<?xml version="1.0" encoding="utf-8"?>
<!-- Generator: Adobe Illustrator 16.0.0, SVG Export Plug-In . SVG Version: 6.00 Build 0)  -->
<!DOCTYPE svg PUBLIC "-//W3C//DTD SVG 1.1//EN" "http://www.w3.org/Graphics/SVG/1.1/DTD/svg11.dtd">
<svg version="1.1" id="initials" xmlns="http://www.w3.org/2000/svg" xmlns:xlink="http://www.w3.org/1999/xlink" x="0px" y="0px"
	 width="400px" height="400px" viewBox="0 0 400 400" enable-background="new 0 0 400 400" xml:space="preserve">
<g>
	<path fill="#F0F0F0" d="M200,392C94.131,392,8,305.869,8,200S94.131,8,200,8s192,86.131,192,192S305.869,392,200,392z"/>
	<path fill="#646464" d="M200,16c49.148,0,95.354,19.139,130.107,53.893C364.86,104.646,384,150.852,384,200
		s-19.14,95.354-53.893,130.107S249.148,384,200,384s-95.354-19.14-130.107-53.893C35.139,295.354,16,249.148,16,200
		s19.139-95.354,53.893-130.107C104.646,35.139,150.852,16,200,16 M200,0C89.543,0,0,89.543,0,200s89.543,200,200,200
		s200-89.543,200-200S310.457,0,200,0L200,0z"/>
</g>
<g id="Layer_1_1_">
	
		<line fill="none" stroke="#646464" stroke-width="16" stroke-linecap="round" stroke-miterlimit="10" x1="153.728" y1="85.607" x2="200.438" y2="306.046"/>
	
		<line fill="none" stroke="#646464" stroke-width="16" stroke-linecap="round" stroke-miterlimit="10" x1="200.438" y1="306.046" x2="276.765" y2="192.486"/>
	
		<line fill="none" stroke="#646464" stroke-width="16" stroke-linecap="round" stroke-miterlimit="10" x1="254.426" y1="306.046" x2="330.754" y2="192.486"/>
	
		<line fill="none" stroke="#646464" stroke-width="16" stroke-linecap="round" stroke-miterlimit="10" x1="50.635" y1="382.652" x2="301.78" y2="9"/>
	
		<line display="none" fill="none" stroke="#646464" stroke-width="16" stroke-linecap="round" stroke-miterlimit="10" x1="94.565" y1="306.046" x2="242.73" y2="85.607"/>
	
		<line display="none" fill="none" stroke="#646464" stroke-width="16" stroke-linecap="round" stroke-miterlimit="10" x1="147.849" y1="85.607" x2="194.557" y2="306.046"/>
	
		<line fill="none" stroke="#646464" stroke-width="16" stroke-linecap="round" stroke-miterlimit="10" x1="230.363" y1="192.486" x2="254.426" y2="306.046"/>
</g>
</svg>
